<svg width="105" height="18" xmlns="http://www.w3.org/2000/svg">
 <style type="text/css">.st0{fill:#3B4C7D;}
	.st1{fill:#3E3E3E;}
	.st2{fill-rule:evenodd;clip-rule:evenodd;fill:#719999;}
	.st3{fill-rule:evenodd;clip-rule:evenodd;fill:#3B4C7D;}
	.st4{filter:url(#Adobe_OpacityMaskFilter);}
	.st5{clip-path:url(#SVGID_2_);}
	.st6{clip-path:url(#SVGID_5_);fill:url(#SVGID_6_);}
	.st7{clip-path:url(#SVGID_2_);mask:url(#SVGID_3_);fill:url(#SVGID_7_);}
	.st8{filter:url(#Adobe_OpacityMaskFilter_1_);}
	.st9{clip-path:url(#SVGID_9_);}
	.st10{clip-path:url(#SVGID_12_);fill:url(#SVGID_13_);}
	.st11{clip-path:url(#SVGID_9_);mask:url(#SVGID_10_);fill:url(#SVGID_14_);}</style>
 <g>
  <title>background</title>
  <rect fill="none" id="canvas_background" height="20" width="107" y="-1" x="-1"/>
 </g>
 <g>
  <title>Layer 1</title>
  <g stroke="null" id="svg_1">
   <polygon stroke="null" id="svg_2" points="14.338664054870605,4.19117496907711 17.482091903686523,4.19117496907711 15.415178298950195,14.89176319539547 12.164095878601074,14.89176319539547 " class="st0"/>
   <path stroke="null" id="svg_3" d="m51.198627,4.191176l-6.329924,0c-2.023853,0 -2.4114,2.583642 -2.4114,2.583642l-1.162639,5.856256c0,0 -0.58132,2.303748 1.873141,2.303748l6.329924,0c0.322955,0 1.937732,-0.172243 2.4114,-2.583642l1.162639,-5.856256c0,0 0.58132,-2.303748 -1.873141,-2.303748m-1.507125,3.078841l-0.796623,3.983115l-0.107652,0.60285c0,0 -0.172243,1.011927 -1.033457,1.011927l-2.368339,0c-0.839684,0 -0.62438,-1.011927 -0.62438,-1.011927l0.107652,-0.60285l0.796623,-3.983115c0,0 0.172243,-1.011927 1.011927,-1.011927l2.43293,0c0.839684,0 0.58132,1.011927 0.58132,1.011927" class="st0"/>
   <path stroke="null" id="svg_4" d="m27.988906,12.35118l1.162639,-5.856256c0,0 0.58132,-2.303748 -1.873141,-2.303748l-6.329924,0c-2.002323,0 -2.4114,2.583642 -2.4114,2.583642l-1.636307,8.160004l3.294144,0l0.62438,-3.078841l0.107652,-0.60285l0.796623,-3.983115c0,0 0.172243,-1.011927 1.011927,-1.011927l2.43293,0c0.861214,0 0.60285,1.011927 0.60285,1.011927l-0.796623,3.983115l-0.107652,0.60285l-0.62438,3.078841l3.272614,0l0.473668,-2.583642z" class="st0"/>
   <path stroke="null" id="svg_5" d="m37.569913,7.679094l0.086121,-0.409077c0,0 0.279895,-1.011927 -0.58132,-1.011927l-2.43293,0c-0.839684,0 -1.011927,1.011927 -1.011927,1.011927l-0.796623,3.983115l-0.107652,0.60285c0,0 -0.193773,1.011927 0.62438,1.011927l2.368339,0c0.861214,0 1.033457,-1.011927 1.033457,-1.011927l0.086121,-0.409077l0,-0.086121l3.251083,0l-0.193773,0.968866c-0.473668,2.4114 -2.066914,2.583642 -2.4114,2.583642l-6.329924,0c-2.475991,0 -1.894671,-2.303748 -1.894671,-2.303748l1.162639,-5.856256c0,0 0.387546,-2.583642 2.4114,-2.583642l6.329924,0c2.475991,0 1.873141,2.303748 1.873141,2.303748l-0.236834,1.2057l-3.229553,0l0,0z" class="st0"/>
   <path stroke="null" id="svg_6" d="m1.657284,7.786745l0.193773,-0.990396c0,0 0.387546,-2.583642 2.4114,-2.583642l6.329924,0l2.260687,0c0,0 -0.301425,1.85161 -0.322955,2.045384l-6.480636,0c-0.753562,0 -0.818153,0.344486 -0.904275,0.62438c0,0.043061 -0.150712,0.62438 -0.150712,0.62438s-0.193773,1.011927 0.62438,1.011927l4.112297,0c2.475991,0 1.894671,2.303748 1.894671,2.303748l-0.301425,1.507125c-0.473668,2.4114 -2.066914,2.583642 -2.4114,2.583642l-8.762854,0l0.473668,-2.045384l5.705544,0l0.753562,0c0.861214,0 1.033457,-1.011927 1.033457,-1.011927l0.064591,-0.301425c0,0 0.258364,-1.011927 -0.60285,-1.011927l-4.133828,0.02153c-2.475991,0 -1.873141,-2.303748 -1.873141,-2.303748l0.086121,-0.473668z" class="st0"/>
   <path stroke="null" id="svg_7" d="m53.523905,13.104743c0.58132,0.387546 1.334882,0.667441 2.217626,0.667441c1.184169,0 2.260687,-0.688971 2.260687,-1.959262c0,-0.775093 -0.430607,-1.356412 -1.528655,-1.959262c-1.334882,-0.732032 -2.066914,-1.571716 -2.066914,-2.669764c0,-1.873141 1.614777,-3.05731 3.530978,-3.05731c1.011927,0 1.787019,0.301425 2.131505,0.538259l-0.473668,1.054987c-0.322955,-0.193773 -0.968866,-0.495198 -1.80855,-0.495198c-1.291821,0 -2.066914,0.861214 -2.066914,1.700898c0,0.861214 0.516728,1.334882 1.636307,1.937732c1.291821,0.688971 1.980793,1.507125 1.980793,2.798946c0,1.787019 -1.399473,3.229553 -3.767812,3.229553c-1.033457,-0.02153 -2.066914,-0.344486 -2.519051,-0.732032l0.473668,-1.054987z" class="st1"/>
   <path stroke="null" id="svg_8" d="m70.209929,8.389595c0,1.80855 -0.667441,3.810873 -1.916201,5.038103c-0.904275,0.904275 -2.131505,1.464064 -3.574039,1.464064c-2.691294,0 -3.940055,-2.023853 -3.940055,-4.24148c0,-1.85161 0.710502,-3.875464 1.980793,-5.124224c0.904275,-0.861214 2.174566,-1.399473 3.509448,-1.399473c2.798946,0 3.940055,2.045384 3.940055,4.26301m-6.502167,-2.153035c-1.011927,1.011927 -1.571716,2.842007 -1.571716,4.306071c0,1.700898 0.753562,3.272614 2.798946,3.272614c0.882744,0 1.743959,-0.387546 2.389869,-1.033457c0.968866,-0.990396 1.550185,-2.863537 1.550185,-4.327601c0,-1.485594 -0.473668,-3.251083 -2.777416,-3.251083c-0.947336,0 -1.743959,0.409077 -2.389869,1.033457" class="st1"/>
   <polygon stroke="null" id="svg_9" points="72.83662414550781,4.298827156424522 78.13309478759766,4.298827156424522 77.91780090332031,5.396876320242882 73.91315460205078,5.396876320242882 73.22416687011719,8.90632389485836 76.92740631103516,8.90632389485836 76.71209716796875,9.982839092612267 73.00887298583984,9.982839092612267 72.14765930175781,14.719517216086388 70.8558349609375,14.719517216086388 " class="st1"/>
   <polygon stroke="null" id="svg_10" points="81.62100219726562,5.396876320242882 78.5852279663086,5.396876320242882 78.800537109375,4.298827156424522 86.18545532226562,4.298827156424522 85.97014617919922,5.396876320242882 82.91282653808594,5.396876320242882 81.1473388671875,14.719517216086388 79.85552978515625,14.719517216086388 " class="st1"/>
   <path stroke="null" id="svg_11" d="m84.398431,3.243841c0,0 22.047082,-6.243802 11.389557,1.334882c-10.657525,7.578684 -22.499219,12.78903 -22.499219,12.78903s21.121277,-11.690982 19.850986,-14.253094c-0.882744,-1.83008 -8.741323,0.129182 -8.741323,0.129182" class="st2"/>
   <path stroke="null" id="svg_12" d="m94.68994,7.076244c0,0 15.760219,-4.499844 8.138474,0.947336c-7.621745,5.447179 -16.083174,9.193461 -16.083174,9.193461s15.092778,-8.396838 14.188503,-10.248448c-0.62438,-1.291821 -6.243802,0.107652 -6.243802,0.107652" class="st3"/>
   <g stroke="null" id="svg_13">
    <defs stroke="null" transform="translate(0,0.12499760091304779) translate(0,0.12499760091304779) translate(-0.12499760091304779,0) translate(-8.12484359741211,-2.2499568462371826) translate(7,14) translate(-6,-214) translate(1.399999976158142,-15) scale(0.41440561413764954) translate(-1.399999976158142,15) translate(3.3783326148986816,-36.1964225769043) scale(0.5195478200912476) translate(-3.3783326148986816,36.1964225769043) ">
     <path stroke="null" d="m404.8,226.5c25.8,-6.5 82,-18.8 42.2,9.4c-36.4,25.9 -75.7,45.9 -94.9,55.1c-2.8,1.6 -4.5,2.5 -4.5,2.5s55,-24.2 104.5,-59.4c18.7,-13.3 15.7,-17.4 4.8,-17.4c-13.8,0.1 -40.5,6.7 -52.1,9.8" id="SVGID_1_"/>
    </defs>
    <clipPath stroke="null" transform="translate(0,0.12499760091304779) translate(0,0.12499760091304779) translate(-0.12499760091304779,0) translate(-8.12484359741211,-2.2499568462371826) translate(7,14) translate(-6,-214) translate(1.399999976158142,-15) scale(0.41440561413764954) translate(-1.399999976158142,15) translate(3.3783326148986816,-36.1964225769043) scale(0.5195478200912476) translate(-3.3783326148986816,36.1964225769043) " id="SVGID_2_"/>
   </g>
  </g>
 </g>
</svg>